# xmcd
#
# Track frame offsets: 
#        150
#        17137
#        30018
#        49156
#        67993
#        85186
#        112879
#        132296
#        160352
#        194521
#
# Disc length: 2885 seconds
#
# Revision: 0
# Processed by: cddbd v1.5.2PL0 Copyright (c) Steve Scherf et al.
# Submitted via: ExactAudioCopy v0.99pb4
#
DISCID=780b430a
DTITLE=Randy Owen - Friends
DYEAR=2011
DGENRE=Country
TTITLE0=Friends
TTITLE1=In Honor Of (Those Serving Us)
TTITLE2=Foot Stompin' Music
TTITLE3=If Daddy Were Alive
TTITLE4=Yellow Black Top Camaro
TTITLE5=Alabama Coast
TTITLE6=Smile
TTITLE7=Crooked Trees
TTITLE8=There's A Lot To Say In Goodbye
TTITLE9=In Honor Of (Those Serving Us) with 911 tribute
EXTD=
EXTT0=
EXTT1=
EXTT2=
EXTT3=
EXTT4=
EXTT5=
EXTT6=
EXTT7=
EXTT8=
EXTT9=
PLAYORDER=
